<svg xmlns="http://www.w3.org/2000/svg" viewBox="0 0 1200 700"><defs><linearGradient id="g" x1="0" y1="0" x2="1" y2="1"><stop stop-color="#fff0ef"/><stop offset=".5" stop-color="#f7efff"/><stop offset="1" stop-color="#e7f7ff"/></linearGradient></defs><rect width="1200" height="700" fill="url(#g)"/><g transform="translate(130 130)"><path d="M150 0c115 0 190 70 190 160 0 55-28 86-73 86h-42c-25 0-42 18-42 40 0 38-32 60-75 60C25 346-20 280 8 200 35 120 62 0 150 0z" fill="#fff" stroke="#d68bb5" stroke-width="10"/><circle cx="95" cy="90" r="22" fill="#ef6e6e"/><circle cx="165" cy="65" r="22" fill="#f1c34f"/><circle cx="230" cy="95" r="22" fill="#66bf8d"/><circle cx="260" cy="160" r="22" fill="#5aaee6"/></g><g transform="translate(600 90)"><path d="M100 0c-78 0-130 56-130 130 0 52 28 89 65 112v55h130v-55c38-23 65-60 65-112C230 56 178 0 100 0z" fill="#f6cf58" stroke="#d59d34" stroke-width="10"/><path d="M55 330h90M65 365h70" stroke="#6f6f75" stroke-width="18"/></g><g transform="translate(880 150)" fill="none" stroke="#6f70c8" stroke-width="18"><path d="M80 0v230"/><path d="M80 0 215 40v195"/><circle cx="30" cy="245" r="46"/><circle cx="165" cy="250" r="46"/></g></svg>