<svg xmlns="http://www.w3.org/2000/svg" viewBox="0 0 1200 700"><rect width="1200" height="700" fill="#fff9e9"/><g stroke="#e4d7b2" stroke-width="2" opacity=".7"><path d="M0 100h1200M0 200h1200M0 300h1200M0 400h1200M0 500h1200M0 600h1200"/><path d="M100 0v700M200 0v700M300 0v700M400 0v700M500 0v700M600 0v700M700 0v700M800 0v700M900 0v700M1000 0v700M1100 0v700"/></g><g transform="translate(110 110)" fill="none" stroke="#e7973f" stroke-width="15"><path d="M0 240 135 0l135 240z"/><path d="M135 0v240M0 240h270"/></g><g transform="translate(470 85)"><rect width="250" height="300" rx="28" fill="#294e6a"/><rect x="28" y="28" width="194" height="62" rx="10" fill="#a9e2bd"/><g fill="#fff"><rect x="28" y="120" width="44" height="44" rx="8"/><rect x="102" y="120" width="44" height="44" rx="8"/><rect x="176" y="120" width="44" height="44" rx="8"/><rect x="28" y="194" width="44" height="44" rx="8"/><rect x="102" y="194" width="44" height="44" rx="8"/><rect x="176" y="194" width="44" height="44" rx="8"/></g></g><g font-family="Arial" font-weight="700" fill="#3d6f88"><text x="150" y="560" font-size="74">π</text><text x="315" y="545" font-size="54">x² + y²</text><text x="690" y="560" font-size="62">√144 = 12</text></g></svg>