<svg xmlns="http://www.w3.org/2000/svg" viewBox="0 0 1200 700"><defs><linearGradient id="g" x1="0" y1="0" x2="1" y2="1"><stop stop-color="#dff7ff"/><stop offset="1" stop-color="#e8f7ee"/></linearGradient></defs><rect width="1200" height="700" fill="url(#g)"/><g opacity=".18" fill="#2a86b7"><circle cx="150" cy="130" r="70"/><circle cx="1030" cy="560" r="105"/></g><g transform="translate(120 125)"><path d="M55 0v120l-70 150c-22 48 12 102 65 102h150c53 0 87-54 65-102L195 120V0" fill="#fff" stroke="#4da6c7" stroke-width="10"/><path d="M10 255h230" stroke="#ef7e9b" stroke-width="28"/><circle cx="70" cy="300" r="20" fill="#f4c84e"/><circle cx="155" cy="328" r="14" fill="#69c98f"/></g><g transform="translate(520 125)"><path d="M105 0c-48 80-48 160 0 240" fill="none" stroke="#234c67" stroke-width="22" stroke-linecap="round"/><path d="M55 80h110M32 240h205" stroke="#234c67" stroke-width="18" stroke-linecap="round"/><circle cx="145" cy="145" r="54" fill="#6cc0e3"/><path d="M145 92v106M92 145h106" stroke="#fff" stroke-width="10"/></g><g transform="translate(850 120)" fill="none" stroke="#6c7fd2" stroke-width="10"><circle cx="100" cy="100" r="20" fill="#6c7fd2"/><ellipse cx="100" cy="100" rx="95" ry="36"/><ellipse cx="100" cy="100" rx="95" ry="36" transform="rotate(60 100 100)"/><ellipse cx="100" cy="100" rx="95" ry="36" transform="rotate(120 100 100)"/></g></svg>